HIERARCHY
ROOT root
{
	OFFSET 0.000000 0.000000 0.000000
	CHANNELS 6 Xposition Yposition Zposition Zrotation Yrotation Xrotation
	JOINT lhip
	{
		OFFSET 0.058581 -0.082280 -0.017664
		CHANNELS 3 Zrotation Yrotation Xrotation
		JOINT lknee
		{
			OFFSET 0.043451 -0.386469 0.008037
			CHANNELS 3 Zrotation Yrotation Xrotation
			JOINT lankle
			{
				OFFSET -0.014790 -0.426874 -0.037428
				CHANNELS 3 Zrotation Yrotation Xrotation
				JOINT ltoe
				{
					OFFSET 0.041054 -0.060286 0.122042
					CHANNELS 3 Zrotation Yrotation Xrotation
					End Site
					{
						OFFSET 0.000000 0.000000 0.000000
					}
				}
			}
		}
	}
	JOINT rhip
	{
		OFFSET -0.060310 -0.090513 -0.013543
		CHANNELS 3 Zrotation Yrotation Xrotation
		JOINT rknee
		{
			OFFSET -0.043257 -0.383688 -0.004843
			CHANNELS 3 Zrotation Yrotation Xrotation
			JOINT rankle
			{
				OFFSET 0.019056 -0.420046 -0.034562
				CHANNELS 3 Zrotation Yrotation Xrotation
				JOINT rtoe
				{
					OFFSET -0.034840 -0.062106 0.130323
					CHANNELS 3 Zrotation Yrotation Xrotation
					End Site
					{
						OFFSET 0.000000 0.000000 0.000000
					}
				}
			}
		}
	}
	JOINT lowerback
	{
		OFFSET 0.004439 0.124404 -0.038385
		CHANNELS 3 Zrotation Yrotation Xrotation
		JOINT upperback
		{
			OFFSET 0.004488 0.137956 0.026820
			CHANNELS 3 Zrotation Yrotation Xrotation
			JOINT chest
			{
				OFFSET -0.002265 0.056032 0.002855
				CHANNELS 3 Zrotation Yrotation Xrotation
				JOINT lowerneck
				{
					OFFSET -0.013390 0.211636 -0.033468
					CHANNELS 3 Zrotation Yrotation Xrotation
					JOINT upperneck
					{
						OFFSET 0.010113 0.088937 0.050410
						CHANNELS 3 Zrotation Yrotation Xrotation
						End Site
						{
							OFFSET 0.000000 0.000000 0.000000
						}
					}
				}
				JOINT lclavicle
				{
					OFFSET 0.071702 0.114000 -0.018898
					CHANNELS 3 Zrotation Yrotation Xrotation
					JOINT lshoulder
					{
						OFFSET 0.122921 0.045205 -0.019046
						CHANNELS 3 Zrotation Yrotation Xrotation
						JOINT lelbow
						{
							OFFSET 0.255332 -0.015649 -0.022946
							CHANNELS 3 Zrotation Yrotation Xrotation
							JOINT lwrist
							{
								OFFSET 0.265709 0.012698 -0.007375
								CHANNELS 3 Zrotation Yrotation Xrotation
								End Site
								{
									OFFSET 0.000000 0.000000 0.000000
								}
							}
						}
					}
				}
				JOINT rclavicle
				{
					OFFSET -0.082954 0.112472 -0.023707
					CHANNELS 3 Zrotation Yrotation Xrotation
					JOINT rshoulder
					{
						OFFSET -0.113228 0.046853 -0.008472
						CHANNELS 3 Zrotation Yrotation Xrotation
						JOINT relbow
						{
							OFFSET -0.260127 -0.014369 -0.031269
							CHANNELS 3 Zrotation Yrotation Xrotation
							JOINT rwrist
							{
								OFFSET -0.269108 0.006794 -0.006027
								CHANNELS 3 Zrotation Yrotation Xrotation
								End Site
								{
									OFFSET 0.000000 0.000000 0.000000
								}
							}
						}
					}
				}
			}
		}
	}
}
MOTION
Frames: 17
Frame Time: 0.033333
-1.213724 0.310747 0.986315 85.715392 -6.011442 86.042049 -13.254882 -2.034903 -0.144224 -1.061247 -4.427843 6.406942 11.856429 19.177387 -13.532015 0.000000 -0.000000 0.000000 -12.091914 2.827054 -16.571646 0.329880 1.787847 65.733409 6.574656 -11.790052 4.389121 0.000000 -0.000000 0.000000 8.984447 -3.621629 19.628118 12.396054 -0.907216 -2.830549 7.034609 -1.518447 2.615593 2.883000 -3.277931 -2.846537 -9.157122 -1.414958 8.649039 -19.653388 -1.609099 -0.303003 -63.348468 -10.739611 16.762571 -0.471602 -46.002559 29.131229 -4.586614 -4.176398 6.539538 23.381406 -0.187181 -4.173989 33.742021 4.591210 7.948082 -17.292209 30.225302 -13.010408 -18.156970 1.022202 7.728841 
-1.190895 0.312937 0.987230 86.492892 -5.395165 85.468075 -12.898825 -1.074257 1.966332 -1.011292 -6.072621 6.363390 11.620835 19.463640 -14.844878 0.000000 -0.000000 0.000000 -11.655881 2.983344 -19.449235 0.502423 0.133084 64.332370 6.532832 -10.954613 -1.282087 0.000000 -0.000000 0.000000 9.118582 -4.918127 20.273557 12.560487 -0.839835 -3.202578 7.230097 -1.905119 2.572275 2.634917 -2.528734 -2.129468 -9.386487 -1.456445 8.312127 -19.530684 -1.168291 -0.524819 -63.072129 -11.928402 16.144398 1.889380 -47.216781 26.033245 -4.030754 -3.393412 5.287095 23.653369 -1.003064 -3.986786 34.053821 3.299308 7.922194 -16.502626 30.191289 -11.370170 -17.675677 0.685048 7.333750 
-1.168657 0.313849 0.987828 87.200760 -4.745208 85.052307 -12.272735 0.016535 4.007872 -1.008005 -7.551576 6.098338 10.892200 19.415015 -16.118870 0.000000 -0.000000 0.000000 -11.183276 3.209209 -21.850050 0.613673 -1.307721 60.250996 7.129089 -9.796842 -7.027077 0.000000 -0.000000 0.000000 9.280127 -6.030949 20.968993 12.678559 -0.735163 -3.593244 7.500150 -2.185238 2.507495 2.522526 -1.616716 -1.713832 -9.530652 -1.742286 7.719294 -19.115212 -0.681178 -0.742547 -62.942484 -13.051660 15.775328 3.758683 -48.603512 23.707782 -3.478049 -3.136613 4.023558 23.774924 -1.853484 -3.832578 34.474934 1.904006 7.884954 -15.785461 29.969492 -9.595220 -17.180773 0.625973 7.192071 
-1.147271 0.314008 0.987677 87.835701 -4.128235 84.982629 -11.532431 1.012454 5.631590 -0.951010 -8.702114 5.745156 9.807678 19.064664 -17.415242 0.000000 -0.000000 0.000000 -10.722394 3.149327 -23.907728 -0.009573 -2.830446 53.737298 8.098400 -9.545120 -10.778871 0.000000 -0.000000 0.000000 9.551069 -6.876024 21.441532 12.717945 -0.654218 -3.994810 7.803819 -2.443193 2.457798 2.310338 -0.944522 -1.502676 -9.490471 -1.986853 7.027014 -18.677814 -0.282039 -0.693067 -62.627574 -14.110200 15.538328 5.060345 -50.249478 22.163797 -2.291599 -3.600303 3.015446 23.856490 -2.564080 -3.553038 34.980419 0.679249 7.803112 -15.351665 29.256046 -8.589494 -17.146900 0.424381 7.424981 
-1.126568 0.313364 0.986788 88.336796 -3.643816 85.300753 -10.829059 1.869569 6.739391 -0.935639 -9.565508 5.522960 9.259475 18.635479 -18.564054 0.000000 -0.000000 0.000000 -10.331256 2.652441 -25.518478 -0.518510 -4.082205 45.199934 8.454894 -9.934362 -12.441997 0.000000 -0.000000 0.000000 9.807696 -7.379281 21.636664 12.708392 -0.600231 -4.453101 8.167163 -2.691259 2.446592 1.997746 -0.657337 -1.388694 -9.202687 -1.881440 6.223467 -18.277958 0.242633 -0.448516 -62.257065 -15.120849 15.254523 5.584535 -52.158859 21.702783 -1.974730 -3.899678 1.733115 23.853235 -3.247685 -3.106350 35.571893 -0.189536 7.614503 -15.162426 28.191452 -8.184490 -17.029155 -0.062986 7.354728 
-1.106373 0.311891 0.985095 88.650120 -3.349235 85.975408 -10.227546 2.724198 7.397003 -0.933899 -10.036944 5.374761 8.008297 17.895467 -19.534004 0.000000 -0.000000 0.000000 -9.854994 1.846788 -26.627433 -0.674475 -4.338268 35.167223 9.203026 -9.280457 -11.902822 0.000000 -0.000000 0.000000 10.019398 -7.421667 21.461926 12.694175 -0.705757 -4.720764 8.514709 -2.850772 2.461076 1.624163 -0.432108 -1.368882 -8.693440 -1.916436 5.121430 -17.887568 0.788548 -0.360888 -62.049546 -15.857151 15.125847 5.658918 -54.025265 21.850016 -1.628700 -4.222282 0.788231 23.867655 -3.947171 -2.788054 36.070499 -0.706310 7.307847 -14.861113 26.928606 -7.721627 -16.935553 -0.627671 7.295191 
-1.085778 0.309450 0.982415 88.882262 -3.242298 86.804075 -9.745431 3.567006 7.887597 -0.955121 -10.242300 5.208143 6.634644 16.984513 -20.457489 0.000000 -0.000000 0.000000 -9.242060 0.891847 -27.079612 -0.341820 -3.016503 24.592826 10.507269 -7.813089 -9.477598 0.000000 -0.000000 0.000000 10.217859 -7.073134 20.879845 12.698738 -1.024379 -4.631907 8.793385 -2.913771 2.453156 1.162642 -0.380441 -1.425959 -8.062588 -1.910142 3.813208 -17.537275 1.242470 -0.398425 -62.092264 -16.376502 15.105873 5.264467 -55.614039 22.387214 -1.333568 -4.501060 0.323705 23.824712 -4.555695 -2.517259 36.551255 -0.967342 6.931652 -14.591032 25.609198 -7.546897 -16.878349 -1.404233 7.539036 
-1.064330 0.306016 0.979158 89.510232 -3.169559 87.506448 -9.096218 4.458206 8.320360 -1.174307 -10.512395 5.510320 6.777493 16.094441 -21.582457 0.000000 -0.000000 0.000000 -8.849465 -0.109747 -26.714585 0.152837 -1.508054 15.419932 11.980114 -6.021479 -8.680602 0.000000 -0.000000 0.000000 10.539366 -6.677770 20.081318 12.737032 -1.459919 -4.409706 8.959604 -3.077467 2.394856 0.906217 -0.381752 -1.680014 -7.723004 -1.944154 3.072874 -17.357729 1.446459 -0.130498 -62.137211 -16.843143 15.049236 4.558257 -56.841523 23.292585 -1.042549 -4.767406 0.101827 23.860054 -4.950283 -2.208801 36.876363 -1.256082 6.443087 -14.379579 24.317629 -7.614907 -16.722008 -1.879840 8.052104 
-1.041897 0.302233 0.975559 90.792989 -3.185286 87.754301 -8.539684 4.973110 8.995301 -1.323107 -11.083026 6.436025 7.509513 15.628005 -22.903155 0.000000 -0.000000 0.000000 -9.125737 -0.840035 -25.784471 0.639605 -1.660391 10.754257 13.157232 -4.807184 -9.329643 0.000000 -0.000000 0.000000 10.850823 -6.629094 19.481640 12.828016 -1.883595 -4.096033 9.146108 -3.416594 2.064878 0.670716 -0.597277 -1.670678 -7.582743 -1.690294 2.216403 -17.335047 1.281185 0.225009 -62.200965 -16.816355 14.979080 3.556232 -57.722004 24.607284 -0.712596 -5.073859 -0.040930 23.549563 -4.883193 -1.573756 37.373686 -1.649864 5.847390 -14.268703 23.054685 -7.863832 -16.652390 -2.037326 8.345222 
-1.018344 0.297860 0.972395 92.154734 -3.301306 87.712584 -8.329611 4.734991 9.971958 -1.260179 -11.680052 7.600008 8.406000 16.085550 -23.737459 0.000000 -0.000000 0.000000 -9.521932 -0.768052 -25.166272 0.750192 -2.578304 12.052818 12.840408 -5.967879 -9.200432 0.000000 -0.000000 0.000000 10.999410 -6.885969 19.026236 12.977692 -1.958560 -3.640028 9.339068 -3.784109 1.787506 0.073086 -1.371770 -1.734463 -7.542290 -1.296401 1.435726 -17.678432 1.211014 0.342728 -62.152631 -16.378249 15.025597 1.761279 -58.331032 26.832803 -0.788558 -5.149910 0.250945 23.180902 -4.530478 -1.071832 37.648039 -1.878361 5.540233 -14.032976 21.708894 -8.437388 -16.909345 -2.133745 8.984912 
-0.993807 0.293273 0.971353 93.275090 -3.488488 87.862947 -8.411156 4.054329 10.760274 -1.062320 -11.899530 8.837807 9.104304 16.904179 -23.863383 0.000000 -0.000000 0.000000 -9.771214 -0.458837 -24.288916 0.505806 -3.835119 13.467075 12.145231 -7.513713 -7.170971 0.000000 -0.000000 0.000000 11.295123 -7.077156 18.406731 13.067573 -1.842981 -3.397934 9.242662 -3.740248 1.635807 0.010665 -2.139202 -2.086129 -7.757912 -1.045641 1.575750 -18.141686 1.387322 0.577137 -62.574360 -15.934354 15.632431 -0.093059 -58.093696 29.483448 -1.315141 -5.341665 1.139677 23.340759 -4.440834 -1.106707 37.244690 -2.015052 5.618537 -13.595979 20.332679 -8.736670 -16.991574 -2.018599 9.261866 
-0.968468 0.288408 0.973220 93.667531 -3.695153 88.513548 -8.547174 3.722619 10.644308 -0.906235 -11.594264 10.733259 10.251874 17.459293 -23.010947 0.000000 -0.000000 0.000000 -9.866027 -0.864478 -23.679916 0.842964 -3.696676 13.148697 11.919320 -8.223708 -4.239590 0.000000 -0.000000 0.000000 11.822740 -6.857273 17.361450 13.115363 -1.602645 -3.192022 9.097750 -3.561229 1.430180 -0.123621 -3.179744 -2.299411 -8.086710 -0.617693 2.145622 -18.865075 1.907501 0.812279 -63.446322 -15.067320 16.168813 -2.477371 -56.858436 32.521513 -1.229337 -5.393310 2.688279 23.423950 -4.232972 -0.999950 36.455547 -1.663240 5.419629 -13.016683 18.929733 -9.166658 -17.048134 -1.815733 9.801720 
-0.942205 0.282137 0.977791 93.193644 -3.568861 89.285421 -8.224906 3.643885 10.054079 -0.935875 -11.034919 13.243573 10.545711 17.490701 -21.444767 0.000000 -0.000000 0.000000 -9.281169 -1.132679 -23.233406 1.130933 -3.440023 13.516548 11.526781 -7.463427 -3.688665 0.000000 -0.000000 0.000000 12.551798 -6.328123 16.501919 13.122857 -1.039630 -3.141343 8.992624 -3.251677 1.234671 0.175373 -3.496922 -2.172983 -8.482937 -0.486412 2.597858 -19.341950 2.616065 0.815925 -64.684699 -13.450107 16.834245 -5.164814 -54.846691 35.879456 -1.457602 -5.144064 3.843973 23.477106 -3.979565 -0.844360 35.484634 -0.708636 4.680611 -12.443229 17.689491 -9.243897 -17.302956 -1.742376 10.537942 
-0.915756 0.276203 0.984387 92.251982 -3.645130 89.847493 -8.366858 2.940273 9.064672 -1.257858 -10.396882 16.877564 10.442114 17.926004 -18.899337 0.000000 -0.000000 0.000000 -9.048020 -0.852630 -21.835408 1.506416 -3.502786 13.010984 11.107587 -6.242198 -4.775762 0.000000 -0.000000 0.000000 13.150716 -5.639733 15.869480 13.020193 -0.602706 -2.778318 8.649062 -2.737042 1.152398 0.815977 -3.359481 -2.345082 -8.788489 -1.062083 3.091850 -19.648275 3.189564 0.715814 -65.432261 -11.558093 17.600903 -7.908762 -52.650582 39.229567 -2.110089 -4.787467 4.875177 23.680943 -3.552073 -0.705724 34.528956 0.850439 3.892297 -12.118997 17.007708 -9.138339 -18.058317 -1.887104 10.898752 
-0.889311 0.269939 0.991211 91.294811 -3.992609 90.322399 -8.622504 2.133939 7.057172 -2.010344 -9.019427 22.140918 9.856209 17.531709 -15.380290 0.000000 -0.000000 0.000000 -8.897088 -1.200067 -20.033175 1.941451 -3.010877 11.845358 10.605062 -4.685665 -5.854278 0.000000 -0.000000 0.000000 13.384954 -4.526352 15.110606 12.941009 -0.656035 -2.190304 8.225083 -2.378815 1.155628 1.503673 -3.037491 -2.722932 -8.985870 -2.042310 3.702880 -19.828358 3.597440 0.626448 -65.447451 -9.517714 18.111429 -10.880573 -50.747311 42.601249 -4.192342 -4.360038 5.965004 23.962644 -2.903969 -0.751402 33.656369 2.880425 3.203025 -11.916748 16.805353 -9.067651 -18.740357 -2.084371 11.460566 
-0.862757 0.262795 0.996958 90.378193 -4.183609 90.473186 -8.171455 1.762568 4.352776 -2.959106 -6.488400 28.698580 7.909608 16.032027 -10.680501 0.000000 -0.000000 0.000000 -8.448029 -1.629847 -17.922136 2.076888 -2.969797 10.782398 9.867636 -2.574251 -6.941823 0.000000 -0.000000 0.000000 13.545850 -3.315278 14.736341 12.856528 -0.827313 -1.655789 7.860136 -2.156975 0.872934 2.203266 -2.302041 -2.690177 -9.195524 -3.032546 4.174106 -19.685986 3.694608 0.692485 -65.070169 -7.160330 18.238694 -13.669702 -49.110497 46.353054 -8.632756 -4.348096 6.595511 23.979662 -2.131477 -0.648127 33.142418 5.034814 2.310502 -11.813759 17.337046 -8.448819 -18.833313 -2.291457 11.349455 
-0.837118 0.255978 1.000842 89.650921 -4.227349 90.269841 -7.188802 1.660051 1.262661 -3.803703 -3.603839 35.904768 5.987493 14.039560 -5.085186 0.000000 -0.000000 0.000000 -8.178968 -1.591349 -15.591626 2.416862 -3.008662 9.966674 8.610019 -0.869682 -7.806945 0.000000 -0.000000 0.000000 13.617069 -2.458252 15.046844 12.752925 -0.764708 -1.389980 7.576959 -1.781584 0.429805 2.669495 -1.884714 -2.617053 -9.332849 -3.921359 4.795084 -19.399101 3.772024 0.820324 -64.525712 -5.004471 18.024293 -16.139108 -47.787447 49.770195 -13.667594 -4.412070 6.909967 23.677484 -1.292098 -0.468823 32.856447 6.825697 1.503048 -11.832048 19.072318 -7.727809 -18.232237 -2.375933 10.303380 
